HIERARCHY
ROOT SpineBase
{
  OFFSET 0.000000 0.000000 0.000000
  CHANNELS 6 Xposition Yposition Zposition Zrotation Xrotation Yrotation
  JOINT SpineMid
  {
    OFFSET 0.000000 31.208306 0.000000
    CHANNELS 3 Zrotation Xrotation Yrotation
    JOINT SpineShoulder
    {
      OFFSET 0.254390 23.106002 -0.656697
      CHANNELS 3 Zrotation Xrotation Yrotation
      JOINT Neck
      {
        OFFSET 0.169308 7.622575 -0.534106
        CHANNELS 3 Zrotation Xrotation Yrotation
        JOINT Head
        {
          OFFSET 4.829143 11.775290 4.196283
          CHANNELS 3 Zrotation Xrotation Yrotation
          End Site
          {
            OFFSET 0 0 0
          }
        }
      }
      JOINT ShoulderLeft
      {
        OFFSET -7.035996 -4.099492 -14.626401
        CHANNELS 3 Zrotation Xrotation Yrotation
        JOINT ElbowLeft
        {
          OFFSET -1.142491 -22.842015 -6.718146
          CHANNELS 3 Zrotation Xrotation Yrotation
          JOINT WristLeft
          {
            OFFSET 8.368987 -18.444913 1.136933
            CHANNELS 3 Zrotation Xrotation Yrotation
            JOINT HandLeft
            {
              OFFSET -0.412878 -0.228012 4.054602
              CHANNELS 3 Zrotation Xrotation Yrotation
              JOINT HandTipLeft
              {
                OFFSET 4.841536 -7.531572 1.929655
                CHANNELS 3 Zrotation Xrotation Yrotation
                End Site
                {
                  OFFSET 0 0 0
                }
              }
              JOINT ThumbLeft
              {
                OFFSET -6.530468 -2.673761 -1.927504
                CHANNELS 3 Zrotation Xrotation Yrotation
                End Site
                {
                  OFFSET 0 0 0
                }
              }
            }
          }
        }
      }
      JOINT ShoulderRight
      {
        OFFSET 9.337240 -5.244030 16.776398
        CHANNELS 3 Zrotation Xrotation Yrotation
        JOINT ElbowRight
        {
          OFFSET 3.613588 -23.617871 1.716251
          CHANNELS 3 Zrotation Xrotation Yrotation
          JOINT WristRight
          {
            OFFSET -26.778538 -3.406940 -3.179238
            CHANNELS 3 Zrotation Xrotation Yrotation
            JOINT HandRight
            {
              OFFSET -0.578540 -6.393814 -1.101645
              CHANNELS 3 Zrotation Xrotation Yrotation
              JOINT HandTipRight
              {
                OFFSET -5.082695 -7.062934 3.431415
                CHANNELS 3 Zrotation Xrotation Yrotation
                End Site
                {
                  OFFSET 0 0 0
                }
              }
              JOINT ThumbRight
              {
                OFFSET 4.069947 -1.559109 -4.872898
                CHANNELS 3 Zrotation Xrotation Yrotation
                End Site
                {
                  OFFSET 0 0 0
                }
              }
            }
          }
        }
      }
    }
  }
  JOINT HipLeft
  {
    OFFSET -2.567367 2.335232 -10.313431
    CHANNELS 3 Zrotation Xrotation Yrotation
    JOINT KneeLeft
    {
      OFFSET -9.219721 -36.070258 -0.802568
      CHANNELS 3 Zrotation Xrotation Yrotation
      JOINT AnkleLeft
      {
        OFFSET -10.411663 -37.472613 4.801471
        CHANNELS 3 Zrotation Xrotation Yrotation
        JOINT FootLeft
        {
          OFFSET 9.933684 -3.732683 -7.813140
          CHANNELS 3 Zrotation Xrotation Yrotation
          End Site
          {
            OFFSET 0 0 0
          }
        }
      }
    }
  }
  JOINT HipRight
  {
    OFFSET 4.355688 -0.741102 3.047362
    CHANNELS 3 Zrotation Xrotation Yrotation
    JOINT KneeRight
    {
      OFFSET -2.338022 -36.572298 7.864129
      CHANNELS 3 Zrotation Xrotation Yrotation
      JOINT AnkleRight
      {
        OFFSET -8.895500 -29.999826 5.533808
        CHANNELS 3 Zrotation Xrotation Yrotation
        JOINT FootRight
        {
          OFFSET 9.739352 -3.830733 -7.910358
          CHANNELS 3 Zrotation Xrotation Yrotation
          End Site
          {
            OFFSET 0 0 0
          }
        }
      }
    }
  }
}
MOTION
Frames: 12
Frame Time: 0.033333
-76.151685 78.708588 318.529751 0.135299 -0.215096 -61.767473 -0.253510 -0.017453 61.767688 0.485099 -0.882491 0.057303 -0.063633 -0.748415 0.471606 0.000000 0.000000 0.000000 -1.176110 2.011434 0.114412 -1.438562 -0.494951 -0.014675 3.182532 19.001814 8.524458 -9.245739 -16.387703 -11.225858 0.000000 0.000000 0.000000 0.000000 0.000000 0.000000 0.578373 0.610253 -0.028065 -1.062666 0.272276 -0.033092 -0.000000 0.000000 0.000000 -0.000000 0.000000 0.000000 0.000000 0.000000 0.000000 0.000000 0.000000 0.000000 -0.253510 -0.017453 61.767688 -0.786139 -0.237197 -0.036376 0.785995 0.237674 0.033118 0.000000 0.000000 0.000000 -0.253510 -0.017453 61.767688 -0.606251 -0.540453 0.045454 -43.366093 -27.169989 -23.438343 0.000000 0.000000 0.000000
-76.222341 78.636856 318.578664 0.052410 -0.413636 -61.136031 -0.387550 0.153774 61.136740 0.432120 -1.072381 0.058109 0.017684 -1.043105 0.662749 0.000000 0.000000 0.000000 -1.698363 2.364955 0.294994 -0.743775 -0.782405 -0.222918 2.835251 23.789146 10.717628 -11.290608 -19.564148 -13.970373 0.000000 0.000000 0.000000 0.000000 0.000000 0.000000 0.471140 1.227413 0.021103 -0.902150 -0.154140 -0.090456 -0.000000 0.000000 0.000000 -0.000000 0.000000 0.000000 0.000000 0.000000 0.000000 0.000000 0.000000 0.000000 -0.387550 0.153774 61.136740 -0.000000 0.000000 0.000000 -0.126332 0.228808 0.872505 0.000000 0.000000 0.000000 -0.387550 0.153774 61.136740 -0.514328 -0.679770 0.103390 -21.767708 -16.808480 -8.427940 0.000000 0.000000 0.000000
-76.280384 78.566329 318.652127 -0.022335 -0.607554 -60.504664 0.391449 0.202619 60.521044 0.018595 -0.433600 0.036101 0.160742 -1.408701 0.875738 0.000000 0.000000 0.000000 -2.316701 2.716282 0.518271 0.583545 -1.030439 -0.403092 1.770874 27.632809 13.027349 -12.566875 -21.160347 -15.855290 0.000000 0.000000 0.000000 0.000000 0.000000 0.000000 0.238828 1.952552 0.079336 -0.603994 -0.669177 -0.149862 -0.000000 0.000000 0.000000 -0.000000 0.000000 0.000000 0.000000 0.000000 0.000000 0.000000 0.000000 0.000000 -0.517821 0.318567 60.505985 -0.000000 0.000000 0.000000 -0.205837 0.322162 1.287320 0.000000 0.000000 0.000000 -0.517821 0.318567 60.505985 -0.436600 -0.873880 0.174817 -8.503501 -6.479755 -1.315127 0.000000 0.000000 0.000000
-76.331494 78.499574 318.738324 -0.094255 -0.809022 -59.849469 0.382854 0.230122 59.864813 -0.005681 -0.476488 0.035266 0.328735 -1.730588 1.068891 0.000000 0.000000 0.000000 -2.942968 3.074360 0.753461 1.662871 -1.168491 -0.550843 1.089579 28.839473 14.428287 -13.211977 -21.216242 -16.992016 0.000000 0.000000 0.000000 0.000000 0.000000 0.000000 -0.404611 2.659631 0.123232 0.111914 -1.158635 -0.167867 -0.000000 0.000000 0.000000 -0.000000 0.000000 0.000000 0.000000 0.000000 0.000000 0.000000 0.000000 0.000000 -1.547981 0.576250 59.659070 0.376249 -0.817645 0.203513 -0.282266 0.406425 1.671873 0.000000 0.000000 0.000000 -0.652240 0.487845 59.851580 -0.377603 -1.087188 0.248467 -5.727721 -3.933925 -0.772913 0.000000 0.000000 0.000000
-76.385388 78.445851 318.791688 -0.154566 -0.982725 -59.233796 0.352690 0.202388 59.247230 -0.060432 -0.505334 0.029762 0.554398 -1.973574 1.228010 0.000000 0.000000 0.000000 -3.422254 3.363184 0.975741 2.063166 -1.225031 -0.711826 1.216283 28.176842 15.005079 -13.322117 -19.861210 -17.175047 0.000000 0.000000 0.000000 0.000000 0.000000 0.000000 -0.500416 3.047793 0.151734 4.203186 -1.859854 0.295426 -5.011703 -0.380934 -0.063849 2.281169 1.767479 -0.411901 0.000000 0.000000 0.000000 0.000000 0.000000 0.000000 -2.023019 0.824258 58.962903 0.486882 -1.174740 0.294824 -0.383555 0.526122 2.202954 0.000000 0.000000 0.000000 -0.765377 0.635498 59.236715 -0.306384 -1.362460 0.342830 -3.412765 -1.408326 0.302738 0.000000 0.000000 0.000000
-76.425723 78.394837 318.861564 -0.248796 -1.134782 -58.597944 0.364598 0.143349 58.608318 -0.110271 -0.551506 0.023598 1.076172 -2.216199 1.314951 0.000000 0.000000 0.000000 -3.886201 3.675172 1.213280 2.446634 -1.150682 -0.830628 1.599038 24.838676 14.945038 -12.349148 -16.490017 -16.264507 0.000000 0.000000 0.000000 0.000000 0.000000 0.000000 -0.084510 3.625561 0.217362 3.142538 -2.143356 0.562987 -5.330799 -4.160578 0.041844 1.763529 3.483336 -0.314504 0.000000 0.000000 0.000000 0.000000 0.000000 0.000000 -2.515752 1.078692 58.241304 0.649095 -1.570112 0.396498 -0.473315 0.619823 2.641489 0.000000 0.000000 0.000000 -0.838981 0.803604 58.601364 -0.208199 -1.563615 0.421135 -2.283126 0.192321 1.373752 0.000000 0.000000 0.000000
-76.467110 78.335362 318.932304 -0.383039 -1.248199 -57.765627 0.313012 -0.009825 57.769187 -0.194497 -0.565096 0.007088 1.753950 -2.484625 1.404628 0.000000 0.000000 0.000000 -4.245969 3.778956 1.491199 2.665702 -0.758799 -0.911730 2.308745 21.883236 14.314108 -12.119324 -13.494112 -15.316039 0.000000 0.000000 0.000000 0.000000 0.000000 0.000000 -0.296307 4.399723 0.319194 -1.594705 -2.145243 0.375774 5.155705 6.821815 -2.021520 -4.068261 -9.501004 1.719622 0.000000 0.000000 0.000000 0.000000 0.000000 0.000000 -2.928345 1.362581 57.330195 0.808030 -1.948725 0.494991 -0.696471 0.858561 3.748482 0.000000 0.000000 0.000000 -1.773343 0.743753 57.590703 0.655331 -2.424465 0.710820 -3.079080 0.137361 2.015079 0.000000 0.000000 0.000000
-76.489264 78.281904 319.063021 -0.612881 -1.358838 -56.607850 0.189998 -0.176911 56.599156 -0.259058 -0.554065 -0.015824 2.604542 -2.981177 1.555586 0.000000 0.000000 0.000000 -4.572422 3.683391 1.804858 3.438786 -0.369033 -1.036788 2.225822 22.176003 15.287785 -12.923802 -12.607981 -16.125365 0.000000 0.000000 0.000000 0.000000 0.000000 0.000000 -0.513088 5.036332 0.425119 -12.991676 -0.747848 -1.831818 16.716332 -2.275786 1.034600 -5.268996 1.121868 -1.419024 0.000000 0.000000 0.000000 0.000000 0.000000 0.000000 -3.406854 1.768428 56.073855 1.526955 -3.191472 0.920748 -1.504936 1.944283 5.086915 0.000000 0.000000 0.000000 -2.034846 1.020073 56.386649 1.057898 -2.909582 0.885372 -6.199509 -1.652083 3.093275 0.000000 0.000000 0.000000
-76.476783 78.303503 319.157675 -0.937909 -1.393133 -55.329765 0.037943 -0.403431 55.302882 -0.340957 -0.513372 -0.048055 2.673398 -3.955615 2.228128 0.000000 0.000000 0.000000 -4.964392 3.335484 2.203206 3.392506 0.494239 -1.174074 3.641131 16.420279 14.298252 -11.227350 -8.564251 -14.604416 0.000000 0.000000 0.000000 0.000000 0.000000 0.000000 -1.660556 6.121233 0.642019 -35.366736 4.292559 -7.053068 158.745292 53.331974 -97.614650 -149.998117 -51.156588 -106.836715 0.000000 0.000000 0.000000 0.000000 0.000000 0.000000 -3.625809 2.064897 54.746937 2.254422 -3.505069 1.088313 -2.315032 2.311563 6.775638 0.000000 0.000000 0.000000 -2.277284 1.257055 55.032990 1.679562 -3.475289 1.128502 -6.523487 -0.698801 5.145955 0.000000 0.000000 0.000000
-76.458529 78.378793 319.235795 -1.312845 -1.378207 -54.054164 -0.095193 -0.572803 54.007148 -0.348458 -0.442879 -0.075861 3.532220 -4.651825 2.443877 0.000000 0.000000 0.000000 -5.468870 2.818004 2.593602 3.315056 1.703274 -1.180031 4.935367 12.340635 14.464103 -10.307823 -5.849978 -14.642260 0.000000 0.000000 0.000000 0.000000 0.000000 0.000000 -4.820081 7.661540 1.022855 -65.137015 15.175492 -11.381838 -134.866593 20.743047 -120.066345 -51.880541 35.445545 121.839139 0.000000 0.000000 0.000000 0.000000 0.000000 0.000000 -3.708589 2.325471 53.441720 3.035407 -3.754670 1.251452 -3.188558 2.702533 8.532495 0.000000 0.000000 0.000000 -2.534205 1.502196 53.667658 2.403621 -4.133225 1.415451 -6.297767 0.893525 7.378200 0.000000 0.000000 0.000000
-76.412641 78.489304 319.332471 -1.753538 -1.375256 -52.626139 -0.208760 -0.742843 52.556081 -0.330937 -0.394413 -0.103362 5.312214 -4.631443 2.071391 0.000000 0.000000 0.000000 -5.480646 2.646150 2.832630 2.965359 2.530237 -1.067463 5.823930 13.924568 15.566547 -11.390290 -8.529976 -17.038654 0.000000 0.000000 0.000000 0.000000 0.000000 0.000000 -7.861250 8.826920 1.405587 -84.185060 24.447765 -11.563107 -109.790812 7.391343 -116.843890 -57.960845 -28.284065 -176.988275 0.000000 0.000000 0.000000 0.000000 0.000000 0.000000 -3.973609 2.625409 51.959971 4.078664 -4.169730 1.490877 -4.172843 3.082972 10.273008 0.000000 0.000000 0.000000 -2.735062 1.774405 52.148406 3.135967 -4.699255 1.693071 -5.575282 2.924898 9.553643 0.000000 0.000000 0.000000
-76.437348 78.681158 319.454581 -2.718720 -1.300778 -51.841074 -0.013601 -0.590895 51.734658 -0.141716 -0.246405 -0.123692 8.688722 -4.483759 1.012426 0.000000 0.000000 0.000000 -5.952758 2.428844 3.176788 3.421329 2.505182 -1.402474 5.641241 19.724530 19.460763 -13.616297 -14.398170 -22.675771 0.000000 0.000000 0.000000 0.000000 0.000000 0.000000 -9.883639 9.944004 1.823235 -91.208960 29.840415 -12.162084 -100.507911 -1.289291 -109.509244 -52.250028 -35.041787 -146.531905 0.000000 0.000000 0.000000 0.000000 0.000000 0.000000 -3.617172 3.401466 51.153722 4.729307 -4.551541 1.701744 -4.957458 3.511989 11.749077 0.000000 0.000000 0.000000 -2.664530 2.649391 51.307756 3.648700 -5.480535 1.943457 -4.329487 5.286423 11.262776 0.000000 0.000000 0.000000
